<?xml version="1.0" encoding="UTF-8" standalone="no"?>
<!-- Created with Inkscape (http://www.inkscape.org/) -->

<svg
   xmlns:dc="http://purl.org/dc/elements/1.1/"
   xmlns:cc="http://creativecommons.org/ns#"
   xmlns:rdf="http://www.w3.org/1999/02/22-rdf-syntax-ns#"
   xmlns:svg="http://www.w3.org/2000/svg"
   xmlns="http://www.w3.org/2000/svg"
   xmlns:sodipodi="http://sodipodi.sourceforge.net/DTD/sodipodi-0.dtd"
   xmlns:inkscape="http://www.inkscape.org/namespaces/inkscape"
   width="765"
   height="990"
   id="svg2"
   version="1.1"
   inkscape:version="0.48.3.1 r9886"
   sodipodi:docname="jetdeck_logo.svg">
  <defs
     id="defs4" />
  <sodipodi:namedview
     id="base"
     pagecolor="#ffffff"
     bordercolor="#666666"
     borderopacity="1.0"
     inkscape:pageopacity="0.0"
     inkscape:pageshadow="2"
     inkscape:zoom="5.1940207"
     inkscape:cx="244.2731"
     inkscape:cy="767.95213"
     inkscape:document-units="px"
     inkscape:current-layer="layer1"
     showgrid="false"
     inkscape:window-width="1920"
     inkscape:window-height="1056"
     inkscape:window-x="0"
     inkscape:window-y="24"
     inkscape:window-maximized="1"
     inkscape:snap-global="true"
     inkscape:snap-bbox="true">
    <inkscape:grid
       type="xygrid"
       id="grid3111" />
  </sodipodi:namedview>
  <metadata
     id="metadata7">
    <rdf:RDF>
      <cc:Work
         rdf:about="">
        <dc:format>image/svg+xml</dc:format>
        <dc:type
           rdf:resource="http://purl.org/dc/dcmitype/StillImage" />
        <dc:title />
      </cc:Work>
    </rdf:RDF>
  </metadata>
  <g
     inkscape:label="Layer 1"
     inkscape:groupmode="layer"
     id="layer1"
     transform="translate(0,-62.362183)">
    <rect
       style="fill:#000000;fill-opacity:1;stroke:#ffffff;stroke-width:1.07146668"
       id="rect3138"
       width="521.59656"
       height="111.62788"
       x="130.19907"
       y="245.97958"
       rx="1.7105626"
       ry="1.5100831" />
    <g
       transform="translate(-3.7830851,-114.18924)"
       id="g4204">
      <path
         inkscape:connector-curvature="0"
         id="path3073"
         d="m 187.83612,387.03782 10.22486,65.66061 18.56527,0.0308 c 8.50471,-4.08113 15.36197,-10.5153 19.4377,-18.31099 l -27.42914,-47.38045 -20.79869,0 z"
         style="fill:#ffffff;stroke:#000000;stroke-width:4.19824219;stroke-linecap:square;stroke-linejoin:miter;stroke-miterlimit:4;stroke-opacity:1;stroke-dasharray:none" />
      <path
         inkscape:connector-curvature="0"
         id="path3073-4"
         d="m 175.13357,395.8234 9.42222,60.57422 c 3.40623,0.72807 6.94921,1.14058 10.60872,1.14058 11.72266,0 22.38603,-3.96347 30.39541,-10.4502 l -29.62768,-51.2646 -20.79867,0 z"
         style="fill:#ffffff;stroke:#000000;stroke-width:4.19824219;stroke-linecap:square;stroke-linejoin:miter;stroke-miterlimit:4;stroke-opacity:1;stroke-dasharray:none" />
      <path
         inkscape:connector-curvature="0"
         id="path3073-4-0"
         d="m 162.43102,404.60897 7.119,45.83913 c 7.27304,4.45786 16.0916,7.0901 25.61449,7.0901 6.00175,0 11.7244,-1.076 16.96001,-2.95935 l -28.89482,-49.96988 -20.79868,0 z"
         style="fill:#ffffff;stroke:#000000;stroke-width:4.19824219;stroke-linecap:square;stroke-linejoin:miter;stroke-miterlimit:4;stroke-opacity:1;stroke-dasharray:none" />
      <path
         style="fill:#ffffff;fill-opacity:1;stroke:#ffffff;stroke-width:1;stroke-miterlimit:4;stroke-dasharray:none"
         d="m 86.0625,345.71875 c -24.608958,0 -44.5625,19.92229 -44.5625,44.53125 0,24.60896 19.953542,44.5625 44.5625,44.5625 24.60896,0 44.53125,-19.95354 44.53125,-44.5625 0,-24.60896 -19.92229,-44.53125 -44.53125,-44.53125 z m 0,7.03125 c 20.71068,0 37.5,16.78932 37.5,37.5 0,20.71068 -16.78932,37.5 -37.5,37.5 -20.710678,0 -37.5,-16.78932 -37.5,-37.5 0,-20.71068 16.789322,-37.5 37.5,-37.5 z"
         transform="translate(109.42665,25.717133)"
         id="path3899-9"
         inkscape:connector-curvature="0" />
    </g>
    <flowRoot
       xml:space="preserve"
       id="flowRoot3972-3"
       style="font-size:64px;font-style:italic;font-variant:normal;font-weight:bold;font-stretch:normal;line-height:125%;letter-spacing:-0.42632812px;word-spacing:0px;fill:#ffffff;fill-opacity:1;stroke:none;font-family:Sans;-inkscape-font-specification:Sans Bold Italic"
       transform="matrix(1.2526926,0,0,1.2526926,115.34653,-309.08265)"><flowRegion
         id="flowRegion3974-6"><rect
           id="rect3976-6"
           width="486.89352"
           height="76.771591"
           x="124.24876"
           y="440.71481"
           style="font-size:64px;font-style:italic;font-variant:normal;font-weight:bold;font-stretch:normal;letter-spacing:-0.42632812px;fill:#ffffff;font-family:Sans;-inkscape-font-specification:Sans Bold Italic" /></flowRegion><flowPara
         id="flowPara3978-4"
         style="font-size:65.45899963px;font-style:italic;font-variant:normal;font-weight:bold;font-stretch:normal;letter-spacing:1.59656084px;word-spacing:0px;fill:#ffffff;font-family:Sans;-inkscape-font-specification:Sans Bold Italic">JetDeck</flowPara></flowRoot>  </g>
</svg>
