<?xml version="1.0" encoding="UTF-8" standalone="no"?>
<!-- Created with Inkscape (http://www.inkscape.org/) -->

<svg
   xmlns:dc="http://purl.org/dc/elements/1.1/"
   xmlns:cc="http://creativecommons.org/ns#"
   xmlns:rdf="http://www.w3.org/1999/02/22-rdf-syntax-ns#"
   xmlns:svg="http://www.w3.org/2000/svg"
   xmlns="http://www.w3.org/2000/svg"
   xmlns:sodipodi="http://sodipodi.sourceforge.net/DTD/sodipodi-0.dtd"
   xmlns:inkscape="http://www.inkscape.org/namespaces/inkscape"
   width="765"
   height="990"
   id="svg2"
   version="1.1"
   inkscape:version="0.48.3.1 r9886"
   sodipodi:docname="jetdeck_logo.svg">
  <defs
     id="defs4" />
  <sodipodi:namedview
     id="base"
     pagecolor="#ffffff"
     bordercolor="#666666"
     borderopacity="1.0"
     inkscape:pageopacity="0.0"
     inkscape:pageshadow="2"
     inkscape:zoom="0.79363275"
     inkscape:cx="442.27002"
     inkscape:cy="478.38495"
     inkscape:document-units="px"
     inkscape:current-layer="layer1"
     showgrid="false"
     inkscape:window-width="1920"
     inkscape:window-height="1056"
     inkscape:window-x="0"
     inkscape:window-y="24"
     inkscape:window-maximized="1" />
  <metadata
     id="metadata7">
    <rdf:RDF>
      <cc:Work
         rdf:about="">
        <dc:format>image/svg+xml</dc:format>
        <dc:type
           rdf:resource="http://purl.org/dc/dcmitype/StillImage" />
        <dc:title />
      </cc:Work>
    </rdf:RDF>
  </metadata>
  <g
     inkscape:label="Layer 1"
     inkscape:groupmode="layer"
     id="layer1"
     transform="translate(0,-62.362183)">
    <rect
       style="fill:#000000;fill-opacity:1;stroke:#ffffff"
       id="rect3138"
       width="457.39041"
       height="110.88252"
       x="149.94342"
       y="245.94385"
       rx="1.5"
       ry="1.5" />
    <g
       id="g3098"
       transform="translate(22.027777,-138.60315)">
      <path
         inkscape:connector-curvature="0"
         id="path4453"
         d="m 181.05497,518.90317 c -21.92571,0 -39.6875,17.76178 -39.6875,39.6875 0,21.92571 17.76179,39.6875 39.6875,39.6875 0.5904,0 1.16586,-0.037 1.75,-0.0625 l -23.0625,-40.96875 10.5,1.21875 0.0625,0.0937 21.53124,38.21875 c 0.16621,-0.0467 0.33468,-0.0762 0.5,-0.125 l -27.34374,-48.5625 10.34375,1.21875 24.81249,44.09375 c 0.14737,-0.0809 0.29127,-0.16733 0.4375,-0.25 l -29.74999,-52.84375 10.53125,1.25 34.71874,35.75 c 2.99574,-5.5794 4.6875,-11.94252 4.6875,-18.71875 0,-21.92572 -17.79303,-39.6875 -39.71874,-39.6875 z"
         style="fill:#000000;fill-opacity:1;stroke:#000000;stroke-width:1.29999995;stroke-miterlimit:4;stroke-opacity:1;stroke-dasharray:none" />
      <flowRoot
         transform="matrix(1.2526926,0,0,1.2526926,81.031469,-43.238534)"
         style="font-size:64px;font-style:normal;font-weight:normal;line-height:125%;letter-spacing:-0.42632812px;word-spacing:0px;fill:#000000;fill-opacity:1;stroke:none;font-family:Sans"
         id="flowRoot3972"
         xml:space="preserve"><flowRegion
           id="flowRegion3974"><rect
             style="font-size:64px;letter-spacing:-0.42632812px"
             y="440.71481"
             x="124.24876"
             height="76.771591"
             width="486.89352"
             id="rect3976" /></flowRegion><flowPara
           style="font-size:65.45899963px;font-style:normal;font-variant:normal;font-weight:bold;font-stretch:normal;letter-spacing:1.59656084px;word-spacing:0px;font-family:KyrillaSansSerif;-inkscape-font-specification:KyrillaSansSerif Bold"
           id="flowPara3978">JetDeck</flowPara></flowRoot>    </g>
    <path
       style="fill:#ffffff;fill-opacity:1;stroke:#ffffff;stroke-width:1.29999995;stroke-miterlimit:4;stroke-opacity:1;stroke-dasharray:none"
       d="m 203.08275,261.69763 c -21.92571,0 -39.6875,17.76178 -39.6875,39.6875 0,21.92571 17.76179,39.6875 39.6875,39.6875 0.5904,0 1.16586,-0.037 1.75,-0.0625 l -23.0625,-40.96875 10.5,1.21875 0.0625,0.0937 21.53124,38.21875 c 0.16621,-0.0467 0.33468,-0.0762 0.5,-0.125 l -27.34374,-48.5625 10.34375,1.21875 24.81249,44.09375 c 0.14737,-0.0809 0.29127,-0.16733 0.4375,-0.25 l -29.74999,-52.84375 10.53125,1.25 34.71874,35.75 c 2.99574,-5.5794 4.6875,-11.94252 4.6875,-18.71875 0,-21.92572 -17.79303,-39.6875 -39.71874,-39.6875 z"
       id="path4453-4"
       inkscape:connector-curvature="0" />
    <flowRoot
       xml:space="preserve"
       id="flowRoot3972-9"
       style="font-size:64px;font-style:normal;font-weight:normal;line-height:125%;letter-spacing:-0.42632812px;word-spacing:0px;fill:#ffffff;fill-opacity:1;stroke:none;font-family:Sans"
       transform="matrix(1.2526926,0,0,1.2526926,103.05925,-300.44407)"><flowRegion
         id="flowRegion3974-4"><rect
           id="rect3976-5"
           width="486.89352"
           height="76.771591"
           x="124.24876"
           y="440.71481"
           style="font-size:64px;letter-spacing:-0.42632812px;fill:#ffffff;stroke:none" /></flowRegion><flowPara
         id="flowPara3978-7"
         style="font-size:65.45899963px;font-style:normal;font-variant:normal;font-weight:bold;font-stretch:normal;letter-spacing:1.59656084px;word-spacing:0px;fill:#ffffff;stroke:none;font-family:KyrillaSansSerif;-inkscape-font-specification:KyrillaSansSerif Bold">JetDeck</flowPara></flowRoot>  </g>
</svg>
